<?xml version="1.0" standalone="no"?>
<!DOCTYPE svg PUBLIC "-//W3C//DTD SVG 20010904//EN"
 "http://www.w3.org/TR/2001/REC-SVG-20010904/DTD/svg10.dtd">
<svg version="1.0" xmlns="http://www.w3.org/2000/svg"
 width="292.000000pt" height="169.000000pt" viewBox="0 0 292.000000 169.000000"
 preserveAspectRatio="xMidYMid meet">
<metadata>
Created by potrace 1.16, written by Peter Selinger 2001-2019
</metadata>
<g transform="translate(0.000000,169.000000) scale(0.100000,-0.100000)"
fill="#000000" stroke="none">
<path d="M0 845 l0 -845 1460 0 1460 0 0 845 0 845 -1460 0 -1460 0 0 -845z
m1623 486 c80 -32 157 -108 185 -184 21 -54 22 -75 22 -331 0 -301 -4 -330
-59 -410 -18 -26 -56 -62 -84 -81 -83 -55 -142 -65 -379 -65 l-208 0 0 551 0
551 233 -4 c214 -4 237 -6 290 -27z m634 -346 c44 -203 87 -397 94 -430 l13
-60 9 55 c5 30 44 223 88 428 43 205 79 375 79 378 0 7 219 4 223 -3 3 -6
-180 -767 -256 -1065 l-7 -28 -143 0 -142 0 -136 545 c-75 299 -134 547 -131
550 3 3 56 4 116 3 l111 -3 82 -370z m-1357 270 l0 -95 -225 0 -225 0 0 -120
0 -120 200 0 200 0 0 -95 0 -95 -200 0 -200 0 0 -140 0 -140 225 0 225 0 0
-95 0 -95 -340 0 -340 0 0 545 0 545 340 0 340 0 0 -95z"/>
<path d="M1330 810 l0 -342 94 4 c107 3 138 18 168 79 16 29 18 65 18 259 0
194 -2 230 -18 259 -30 61 -61 76 -168 79 l-94 4 0 -342z"/>
</g>
</svg>
